#N canvas 1127 172 450 413 10;
#X obj 51 48 bng 15 250 50 0 empty selVoz empty 17 7 0 10 -262144 -1
-1;
#X obj 47 224 soundfiler;
#X floatatom 46 270 6 0 0 0 - - -, f 6;
#X obj 54 81 openpanel;
#X obj 78 152 pack s s;
#X obj 55 120 symbol;
#X obj 133 114 symbol;
#X obj 193 169 print;
#X msg 45 187 read -resize \$1 \$2;
#X obj 52 14 inlet;
#X obj 182 18 inlet;
#X obj 50 313 outlet;
#X text 198 36 nombre del arreglo;
#X text 55 31 abrir archivo;
#X text 105 311 salida de muestras para el nombre del arreglo;
#X connect 0 0 3 0;
#X connect 1 0 2 0;
#X connect 2 0 11 0;
#X connect 3 0 5 0;
#X connect 4 0 8 0;
#X connect 4 0 7 0;
#X connect 5 0 4 0;
#X connect 6 0 4 1;
#X connect 8 0 1 0;
#X connect 9 0 0 0;
#X connect 10 0 6 0;
