#N canvas 1 78 1905 1001 10;
#X obj 1518 137 cnv 15 400 600 empty empty Delay_Reverb 20 12 0 14
-233017 -66577 0;
#X floatatom 1768 294 9 0 1499 0 - - -, f 9;
#X obj 1770 264 hsl 100 15 0 5000 0 1 empty sndVolDELAY empty -2 -8
0 10 -262144 -1 -1 2806 1;
#X obj 1750 357 +~;
#X msg 1639 541 roomsize \$1;
#X msg 1584 541 wet \$1;
#X obj 1532 452 vsl 15 50 0 1 0 1 empty sndVolDRY dry 0 -9 0 10 -262144
-1 -1 540 1;
#X obj 1558 453 vsl 15 50 0 1 0 0 empty sndVolWET wet 0 -9 0 10 -262144
-1 -1 0 1;
#X obj 1588 455 vsl 15 50 0 1 0 0 empty sndVolROOMSIZE roomsize 0 -9
0 10 -262144 -1 -1 0 1;
#X msg 1530 541 dry \$1;
#X obj 1749 513 *~;
#X obj 1743 616 freeverb~;
#X obj 34 31 inlet~;
#X text 54 49 entrada de tabread;
#X obj 960 942 outlet~;
#X obj 257 59 hradio 15 1 0 4 empty empty empty 0 -8 0 10 -262144 -1
-1 0;
#X obj 49 444 tgl 15 0 empty empty empty 17 7 0 10 -262144 -1 -1 0
1;
#X obj 96 446 tgl 15 0 empty empty empty 17 7 0 10 -262144 -1 -1 0
1;
#X obj 153 446 tgl 15 0 empty empty empty 17 7 0 10 -262144 -1 -1 0
1;
#X msg 48 408 \$1;
#X msg 94 409 \$2;
#X msg 143 407 \$3;
#X obj 96 483 vsl 15 128 0 1 0 0 empty empty empty 0 -9 0 10 -262144
-1 -1 0 1;
#X obj 153 481 vsl 15 128 0 1 0 0 empty empty empty 0 -9 0 10 -262144
-1 -1 0 1;
#X obj 47 485 vsl 15 128 0 1 0 0 empty empty empty 0 -9 0 10 -262144
-1 -1 0 1;
#X obj 258 87 select 0 1 2 3;
#X msg 10 182 1 0 0 0;
#X msg 90 186 0 1 0 0;
#X msg 158 187 0 0 1 0;
#X msg 224 184 0 0 0 1;
#X msg 195 406 \$4;
#X obj 195 444 tgl 15 0 empty empty empty 17 7 0 10 -262144 -1 -1 0
1;
#X obj 196 478 vsl 15 128 0 1 0 0 empty empty empty 0 -9 0 10 -262144
-1 -1 0 1;
#X obj 35 74 s~ inLine;
#X obj 1532 177 r~ inLine;
#X obj 1537 279 *~;
#X obj 625 134 cnv 15 400 350 empty empty Delay 20 12 0 14 -233017
-66577 0;
#X floatatom 871 234 9 0 1499 0 - - -, f 9;
#X obj 657 348 delwrite~ delaySonido 1500;
#X obj 871 262 delread~ delaySonido;
#X obj 873 204 hsl 100 15 0 5000 0 1 empty sndVolDELAY Delay -2 -8
0 10 -262144 -1 -1 2806 1;
#X obj 853 297 +~;
#X obj 655 172 r~ inLine;
#X obj 656 238 *~;
#X obj 853 420 s~ elDelay;
#X obj 16 666 s aSinEfecto;
#X obj 126 662 s aDelay;
#X obj 678 201 r aDelay;
#X obj 207 661 s aReverb;
#X obj 1743 678 s~ elDelayReverb;
#X obj 1076 136 cnv 15 400 300 empty empty Reverb 20 12 0 14 -233017
-66577 0;
#X msg 1197 281 roomsize \$1;
#X msg 1142 281 wet \$1;
#X obj 1090 192 vsl 15 50 0 1 0 1 empty sndVolDRY dry 0 -9 0 10 -262144
-1 -1 540 1;
#X obj 1116 193 vsl 15 50 0 1 0 0 empty sndVolWET wet 0 -9 0 10 -262144
-1 -1 0 1;
#X obj 1146 195 vsl 15 50 0 1 0 0 empty sndVolROOMSIZE roomsize 0 -9
0 10 -262144 -1 -1 0 1;
#X msg 1088 281 dry \$1;
#X obj 1307 253 *~;
#X obj 1301 356 freeverb~;
#X obj 373 137 cnv 15 200 200 empty empty Sin_efecto 20 12 0 14 -233017
-66577 0;
#X obj 410 234 *~;
#X obj 409 169 r~ inLine;
#X obj 410 295 s~ elSinEfecto;
#X obj 429 192 r aSinEfecto;
#X obj 1304 215 *~;
#X obj 1320 177 r aReverb;
#X obj 1306 145 r~ inLine;
#X obj 1555 206 r aDelayReverb;
#X obj 786 831 r~ elSinEfecto;
#X obj 898 831 r~ elDelay;
#X obj 982 831 r~ elReverb;
#X obj 1075 830 r~ elDelayReverb;
#X obj 732 59 vsl 15 50 0 5000 0 0 sndVolDELAY empty Delay 0 -9 0 10
-262144 -1 -1 0 1;
#X obj 261 24 inlet;
#X text 312 38 entrada de seleccion de efecto;
#X obj 685 20 inlet;
#X text 730 26 entrada de control de delay;
#X obj 1236 19 inlet;
#X obj 1276 67 hsl 80 15 0 1 0 0 sndVolDRY empty Dry -2 -8 0 10 -262144
-1 -1 0 1;
#X obj 1558 19 inlet;
#X obj 1577 58 hsl 80 15 0 1 0 0 sndVolWET empty Wet -2 -8 0 10 -262144
-1 -1 0 1;
#X obj 1820 20 inlet;
#X obj 1839 59 hsl 80 15 0 1 0 0 sndVolROOMSIZE empty Roomsize -2 -8
0 10 -262144 -1 -1 0 1;
#X text 1281 29 entrada de control de dry;
#X text 1602 28 entrada de control de wet;
#X text 1873 25 entrada de control de roomsize;
#X obj 1302 415 s~ elReverb;
#X obj 1533 376 delwrite~ delayRevSonido 1500;
#X obj 1768 321 delread~ delayRevSonido;
#X obj 1361 236 hsl 80 15 0 1 0 0 empty sndVolREVERB Reverb -2 -8 0
10 -262144 -1 -1 0 1;
#X obj 1773 458 hsl 80 15 0 1 0 0 empty sndVolREVERB Reverb -2 -8 0
10 -262144 -1 -1 0 1;
#X obj 976 15 inlet;
#X obj 1016 63 hsl 80 15 0 1 0 0 sndVolREVERB empty Reverb -2 -8 0
10 -262144 -1 -1 0 1;
#X text 1022 25 entrada de control de Reverb;
#X obj 312 662 s aDelayReverb;
#X text 18 690 Sin efecto;
#X text 125 686 Con Delay;
#X text 208 682 Con Reverb;
#X text 311 682 Con Delay y Reverb;
#X text 221 312 orden del caos;
#X text 221 431 Se apagan y se enciende de acuerdo a ala seleccion
del efecto desado, f 22;
#X connect 1 0 88 0;
#X connect 2 0 1 0;
#X connect 3 0 10 0;
#X connect 4 0 11 0;
#X connect 5 0 11 0;
#X connect 6 0 9 0;
#X connect 7 0 5 0;
#X connect 8 0 4 0;
#X connect 9 0 11 0;
#X connect 10 0 11 0;
#X connect 11 0 49 0;
#X connect 12 0 33 0;
#X connect 15 0 25 0;
#X connect 16 0 24 0;
#X connect 17 0 22 0;
#X connect 18 0 23 0;
#X connect 19 0 16 0;
#X connect 20 0 17 0;
#X connect 21 0 18 0;
#X connect 22 0 46 0;
#X connect 23 0 48 0;
#X connect 24 0 45 0;
#X connect 25 0 26 0;
#X connect 25 1 27 0;
#X connect 25 2 28 0;
#X connect 25 3 29 0;
#X connect 26 0 19 0;
#X connect 26 0 20 0;
#X connect 26 0 21 0;
#X connect 26 0 30 0;
#X connect 27 0 19 0;
#X connect 27 0 20 0;
#X connect 27 0 21 0;
#X connect 27 0 30 0;
#X connect 28 0 19 0;
#X connect 28 0 20 0;
#X connect 28 0 21 0;
#X connect 28 0 30 0;
#X connect 29 0 30 0;
#X connect 29 0 19 0;
#X connect 29 0 20 0;
#X connect 29 0 21 0;
#X connect 30 0 31 0;
#X connect 31 0 32 0;
#X connect 32 0 94 0;
#X connect 34 0 35 0;
#X connect 35 0 3 0;
#X connect 35 0 87 0;
#X connect 37 0 39 0;
#X connect 39 0 41 1;
#X connect 40 0 37 0;
#X connect 41 0 44 0;
#X connect 42 0 43 0;
#X connect 43 0 38 0;
#X connect 43 0 41 0;
#X connect 47 0 43 1;
#X connect 51 0 58 0;
#X connect 52 0 58 0;
#X connect 53 0 56 0;
#X connect 54 0 52 0;
#X connect 55 0 51 0;
#X connect 56 0 58 0;
#X connect 57 0 58 0;
#X connect 58 0 86 0;
#X connect 60 0 62 0;
#X connect 61 0 60 0;
#X connect 63 0 60 1;
#X connect 64 0 57 0;
#X connect 65 0 64 1;
#X connect 66 0 64 0;
#X connect 67 0 35 1;
#X connect 68 0 14 0;
#X connect 69 0 14 0;
#X connect 70 0 14 0;
#X connect 71 0 14 0;
#X connect 73 0 15 0;
#X connect 75 0 72 0;
#X connect 77 0 78 0;
#X connect 79 0 80 0;
#X connect 81 0 82 0;
#X connect 88 0 3 1;
#X connect 89 0 57 1;
#X connect 90 0 10 1;
#X connect 91 0 92 0;
